<?xml version="1.0" encoding="utf-8"?>
<!-- Generator: Adobe Illustrator 15.0.2, SVG Export Plug-In . SVG Version: 6.00 Build 0)  -->
<!DOCTYPE svg PUBLIC "-//W3C//DTD SVG 1.1//EN" "http://www.w3.org/Graphics/SVG/1.1/DTD/svg11.dtd">
<svg version="1.1" id="bike" xmlns="http://www.w3.org/2000/svg" xmlns:xlink="http://www.w3.org/1999/xlink" x="0px" y="0px"
	 width="182px" height="182px" viewBox="0 0 182 182" enable-background="new 0 0 182 182" xml:space="preserve">
<circle id="background" fill="#FFFFFF" cx="91" cy="91" r="88"/>
<circle id="border" fill="none" stroke="#231F20" stroke-width="6" stroke-miterlimit="10" cx="91" cy="91" r="88"/>
<path id="rear-wheel" fill="none" stroke="#231F20" stroke-width="6" stroke-linecap="round" stroke-miterlimit="10" d="
	M69.226,122.641C65.805,125.958,61.141,128,56,128c-10.493,0-19-8.508-19-19s8.507-19,19-19c5.036,0,9.615,1.96,13.016,5.158"/>
<path id="front-wheel" fill="none" stroke="#231F20" stroke-width="6" stroke-linecap="round" stroke-miterlimit="10" d="
	M142.226,122.641C138.805,125.958,134.141,128,129,128c-10.492,0-19-8.508-19-19c0-5.246,2.127-9.996,5.565-13.435"/>
<line id="chain-stays" fill="none" stroke="#666666" stroke-width="6" stroke-linecap="round" stroke-miterlimit="10" x1="55" y1="109" x2="81.177" y2="103.092"/>
<line id="seat-tube" fill="none" stroke="#666666" stroke-width="6" stroke-linecap="round" stroke-miterlimit="10" x1="75.417" y1="84.667" x2="81.177" y2="103.092"/>
<line id="top-tube" fill="none" stroke="#666666" stroke-width="6" stroke-linecap="round" stroke-miterlimit="10" x1="121.5" y1="79.584" x2="75.417" y2="84.667"/>
<line id="down-tube" fill="none" stroke="#666666" stroke-width="6" stroke-linecap="round" stroke-miterlimit="10" x1="81.177" y1="103.092" x2="121.5" y2="79.584"/>
<line id="forks" fill="none" stroke="#666666" stroke-width="6" stroke-linecap="round" stroke-miterlimit="10" x1="130" y1="109.917" x2="120.333" y2="73.584"/>
<polyline id="bars_1_" fill="none" stroke="#CCCCCC" stroke-width="6" stroke-linecap="round" stroke-linejoin="round" stroke-miterlimit="10" points="
	120.333,73.584 126.113,72.667 119.75,46.75 "/>
<line id="grips" fill="none" stroke="#231F20" stroke-width="6" stroke-linecap="round" stroke-linejoin="round" stroke-miterlimit="10" x1="119.75" y1="46.75" x2="113.417" y2="46.75"/>
</svg>
